/* XPM */
static char *team_logo[] = {
/* columns rows colors chars-per-pixel */
"64 88 41 1 ",
"  c black",
". c black",
"X c black",
"o c black",
"O c black",
"+ c black",
"@ c black",
"# c black",
"$ c black",
"% c black",
"& c black",
"* c black",
"= c black",
"- c black",
"; c black",
": c black",
"> c black",
", c black",
"< c black",
"1 c black",
"2 c black",
"3 c black",
"4 c black",
"5 c black",
"6 c black",
"7 c black",
"8 c black",
"9 c black",
"0 c black",
"q c black",
"w c black",
"e c black",
"r c black",
"t c black",
"y c black",
"u c black",
"i c black",
"p c black",
"a c black",
"s c None",
"d c black",
/* pixels */
"sssssssssssssssssssssssssssssss43sssssssssssssssssssssssssssssss",
"ssssssssssssssssssssssssssssss4&*3ssssssssssssssssssssssssssssss",
"sssssssssssssssssssssssssssss3&ty=2sssssssssssssssssssssssssssss",
"ssssssssssssssssssssssssssss3&tssy=2ssssssssssssssssssssssssssss",
"sssssssssssssssssssssssssss3&tssssi=2sssssssssssssssssssssssssss",
"ssssssssssssssssssssssssss3%tssssssu-2ssssssssssssssssssssssssss",
"sssssssssssssssssssssssss3%tssssssssu-2sssssssssssssssssssssssss",
"ssssssssssssssssssssssss3%tssssssssssu-2ssssssssssssssssssssssss",
"sssssssssssssssssssssss3%tssssssssssssi-2sssssssssssssssssssssss",
"ssssssssssssssssssssss2%essssssssssssssa-2ssssssssssssssssssssss",
"sssssssssssssssssssss2%essssssssssssssssi;1sssssssssssssssssssss",
"ssssssssssssssssssss2$tssssssssssssssssssa:1ssssssssssssssssssss",
"sssssssssssssssssss2%essssssssssssssssssssa;1sssssssssssssssssss",
"ssssssssssssssssss2$esssssssssssssssssssssss>1ssssssssssssssssss",
"sssssssssssssssss2$essssssssssssassssssssssss>1sssssssssssssssss",
"ssssssssssssssss1$esssssssssssa>;asssssssssssa>1ssssssssssssssss",
"sssssssssssssss2$rsssssssssssa>XX-assssssssssss,1sssssssssssssss",
"ssssssssssssss1$rsssssssssssa:  X -ussssssssssss,1ssssssssssssss",
"sssssssssssss1$rssssssssssss:  XX  -issssssssssss1<sssssssssssss",
"ssssssssssss1#rssssssssssss:        -ussssssssssss1<ssssssssssss",
"sssssssssss1@rsssssssssssa:     X    =ussssssssssss2<sssssssssss",
"ssssssssss1@wssssssssssss:            *yssssssssssss3<ssssssssss",
"sssssssss1#wsssssssssssa:       X      *tssssssssssss3<sssssssss",
"ssssssss1#wsssssssssssa:                &tssssssssssss4,asssssss",
"sssssss1@wsssssssssssa;        <2        &tssssssssssss6,assssss",
"ssssss<Oqsssssssssssa;        <ss3       X%essssssssssss6,asssss",
"sssss<Oqsssssssssssi:        1ssss4        $essssssssssss6,sssss",
"ssss<@qsssssssssssa;        <ssssss5        $essssssssssss5,asss",
"sss<Oqsssssssssssa;        <ssssssss7        $rssssssssssss5>sss",
"ss,+qsssssssssssa;        1ssssssssss8X       #wssssssssssss7,ss",
"a,+0sssssssssssa;        1ssssssssssss9X       #qssssssssssss8>s",
",+0sssssssssssa;        1ssssssssssssss9+       @qssssssssssss8>",
"O;sssssssssssa;        1ssssssssssssssss0O     X&tssssssssssss1 ",
"O <sssssssssi;        1ssssssssssssssssssq@   X&tsssssssssssa1  ",
"O  ,sssssssi-X       2ssssssssssssssssssssw$  &tssssssssssss1   ",
"O   ,sssssa;        2ssssssssssssssssssssssr@&yssssssssssss1    ",
"O    <sssa-        2sssssssssssssssssssssss4*tssssssssssss<     ",
"O     ,si-        2sssssssssssssssssssssss4*tssssssssssss<      ",
"O      ,-X       2sssssssssssssssssssssss4*tssssssssssss<       ",
"O       X       2sssssssssssssssssssssss4*tssssssssssss<        ",
"O       XX     Xyssssssssssssssssssssss4*tssssssssssss<        :",
"O       X       usssssssssssssssssssss4*tssssssssssss,        ;a",
"O       X      Xussssssssssssssssssss4*yssssssssssss,        :ss",
"O       X       usssssssssssssssssss3*yssssssssssss,        :ass",
"O       X       ussssssssssssssssss3*yssssssssssss>        :asss",
"O       X       usssssssssssssssss4*ysssssssssssa>        :assss",
"O       X       yssssssssssssssss3*yssssssssssss>        :asssss",
"O       X       usssssssssssssss3*ussssssssssss>        >sssssss",
"O               yssssssssssssss3*yssssssssssss>        >asssssss",
"O       X      Xusssssssssssss3*ussssssssssss>        >assssssss",
"O       X       ussssssssssss3=ysssssssssssa>        >ssssssssss",
"O       X       usssssssssss2=yssssssssssss>        >assssssssss",
"O       X      Xyssssssssss2=usssssssssssa>        >ssssssssssss",
"O       X       usssssssss2=usssssssssssa:        >assssssssssss",
"O       X       ussssssss2=ussssssssssss:        ,ssssssssssssss",
"O       X      Xusssssss2*ussssssssssss>        ,sssssssssssssss",
"O       X       usssssss&@wssssssssssss8       ,asssssssssssssss",
"O       X      Xysssssss& #wssssssssssss8     >sssssssssssssssss",
"O       X       usssssss&  @qssssssssssss8X  <ssssssssssssssssss",
"O       XX      usssssss&   #qssssssssssss8 :sssssssssssssssssss",
"O       X      Xusssssss&    @qssssssssssss8$essssssssssssssssss",
"O       X       usssssss&     @qssssssssssss8$esssssssssssssssss",
"O       XX     Xusssssss&      @qssssssssssss8$essssssssssssssss",
"#       X      Xusssssss&       @qssssssssssss6$tsssssssssssssss",
"9+      X      7ssssssssqO       @qsssssssssst& qsssssssssssssss",
"s9O     X    X7ssssssssssq@       @qsssssssst&  0sssssssssssssss",
"ss0+    X   X5ssssssssssssqO       @qsssssst&   0sssssssssssssss",
"sss0O   X   5ssssssssssssssq@       Oqsssst&    qsssssssssssssss",
"ssss0O  X  6ssssssssssssssssq@       O0sst&     0sssssssssssssss",
"sssssqO X 6ssssssssssssssssssq@       Oqt&      0sssssssssssssss",
"ssssssq@X6ssssssssssssssssssssw@       O%       0sssssssssssssss",
"sssssssq6ssssssssssssssssssssssqX               0sssssssssssssss",
"sssssssssssssssssssssssssssssssa+       X       0sssssssssssssss",
"sssssssssssssssssssssssssssssssiX       X     O4qsssssssssssssss",
"sssssssssssssssssssssssssssssssa+       +    O000sssssssssssssss",
"sssssssssssssssssssssssssssssssiX       X   Oqsq0sssssssssssssss",
"sssssssssssssssssssssssssssssssa+       X  Oqss00sssssssssssssss",
"sssssssssssssssssssssssssssssssiX       + Oqsss00sssssssssssssss",
"sssssssssssssssssssssssssssssssaX       X@qssss00sssssssssssssss",
"sssssssssssssssssssssssssssssssi+       #qsssss0qsssssssssssssss",
"ssssssssssssssssssssssssssssssss7       -ssssst6ssssssssssssssss",
"sssssssssssssssssssssssssssssssss7      =sssst5sssssssssssssssss",
"ssssssssssssssssssssssssssssssssss8     =ssst5ssssssssssssssssss",
"sssssssssssssssssssssssssssssssssss8X   -sst5sssssssssssssssssss",
"ssssssssssssssssssssssssssssssssssss8X  =st5ssssssssssssssssssss",
"sssssssssssssssssssssssssssssssssssss8X =t6sssssssssssssssssssss",
"ssssssssssssssssssssssssssssssssssssss8 &5ssssssssssssssssssssss",
"sssssssssssssssssssssssssssssssssssssss82sssssssssssssssssssssss"
};
